<mxfile host="app.diagrams.net" modified="2023-12-08T08:54:12.710Z" agent="Mozilla/5.0 (Macintosh; Intel Mac OS X 10_15_7) AppleWebKit/537.36 (KHTML, like Gecko) Chrome/119.0.0.0 Safari/537.36" etag="4jNhr_a98TMSAiLwKHzE" version="22.1.7" type="github">
  <diagram name="ページ1" id="X3-Z0Ys2LcMTCWlcmlNY">
    <mxGraphModel dx="1224" dy="776" grid="1" gridSize="10" guides="1" tooltips="1" connect="1" arrows="1" fold="1" page="1" pageScale="1" pageWidth="827" pageHeight="1169" math="0" shadow="0">
      <root>
        <mxCell id="0" />
        <mxCell id="1" parent="0" />
        <mxCell id="h8hSHoQpXSS6d47UH3lF-1" value="" style="edgeStyle=orthogonalEdgeStyle;rounded=0;orthogonalLoop=1;jettySize=auto;html=1;" edge="1" parent="1" source="h8hSHoQpXSS6d47UH3lF-2" target="h8hSHoQpXSS6d47UH3lF-9">
          <mxGeometry relative="1" as="geometry" />
        </mxCell>
        <mxCell id="h8hSHoQpXSS6d47UH3lF-2" value="パケットデータ" style="rounded=1;whiteSpace=wrap;html=1;" vertex="1" parent="1">
          <mxGeometry x="30" y="345" width="120" height="60" as="geometry" />
        </mxCell>
        <mxCell id="h8hSHoQpXSS6d47UH3lF-30" style="edgeStyle=orthogonalEdgeStyle;rounded=0;orthogonalLoop=1;jettySize=auto;html=1;exitX=1;exitY=0.5;exitDx=0;exitDy=0;entryX=1;entryY=0.5;entryDx=0;entryDy=0;" edge="1" parent="1" source="h8hSHoQpXSS6d47UH3lF-9" target="h8hSHoQpXSS6d47UH3lF-9">
          <mxGeometry relative="1" as="geometry" />
        </mxCell>
        <mxCell id="h8hSHoQpXSS6d47UH3lF-32" value="" style="edgeStyle=orthogonalEdgeStyle;rounded=0;orthogonalLoop=1;jettySize=auto;html=1;" edge="1" parent="1" source="h8hSHoQpXSS6d47UH3lF-9" target="h8hSHoQpXSS6d47UH3lF-28">
          <mxGeometry relative="1" as="geometry" />
        </mxCell>
        <mxCell id="h8hSHoQpXSS6d47UH3lF-9" value="" style="whiteSpace=wrap;html=1;rounded=1;" vertex="1" parent="1">
          <mxGeometry x="185" y="260" width="65" height="230" as="geometry" />
        </mxCell>
        <mxCell id="h8hSHoQpXSS6d47UH3lF-10" value="不均一間隔" style="text;html=1;align=center;verticalAlign=middle;resizable=0;points=[];autosize=1;strokeColor=none;fillColor=none;" vertex="1" parent="1">
          <mxGeometry x="50" y="428" width="80" height="30" as="geometry" />
        </mxCell>
        <mxCell id="h8hSHoQpXSS6d47UH3lF-11" value="均一間隔" style="text;html=1;align=center;verticalAlign=middle;resizable=0;points=[];autosize=1;strokeColor=none;fillColor=none;" vertex="1" parent="1">
          <mxGeometry x="182.5" y="500" width="70" height="30" as="geometry" />
        </mxCell>
        <mxCell id="h8hSHoQpXSS6d47UH3lF-28" value="異常検知" style="whiteSpace=wrap;html=1;rounded=1;" vertex="1" parent="1">
          <mxGeometry x="290" y="347.5" width="130" height="55" as="geometry" />
        </mxCell>
        <mxCell id="h8hSHoQpXSS6d47UH3lF-33" value="" style="edgeStyle=orthogonalEdgeStyle;rounded=0;orthogonalLoop=1;jettySize=auto;html=1;" edge="1" parent="1" source="h8hSHoQpXSS6d47UH3lF-34">
          <mxGeometry relative="1" as="geometry">
            <mxPoint x="725" y="375" as="targetPoint" />
          </mxGeometry>
        </mxCell>
        <mxCell id="h8hSHoQpXSS6d47UH3lF-34" value="パケットデータ" style="rounded=1;whiteSpace=wrap;html=1;" vertex="1" parent="1">
          <mxGeometry x="570" y="345" width="120" height="60" as="geometry" />
        </mxCell>
        <mxCell id="h8hSHoQpXSS6d47UH3lF-35" style="edgeStyle=orthogonalEdgeStyle;rounded=0;orthogonalLoop=1;jettySize=auto;html=1;exitX=1;exitY=0.5;exitDx=0;exitDy=0;entryX=1;entryY=0.5;entryDx=0;entryDy=0;" edge="1" parent="1">
          <mxGeometry relative="1" as="geometry">
            <mxPoint x="850" y="375" as="sourcePoint" />
            <mxPoint x="850" y="375" as="targetPoint" />
          </mxGeometry>
        </mxCell>
        <mxCell id="h8hSHoQpXSS6d47UH3lF-38" value="不均一間隔" style="text;html=1;align=center;verticalAlign=middle;resizable=0;points=[];autosize=1;strokeColor=none;fillColor=none;" vertex="1" parent="1">
          <mxGeometry x="590" y="413" width="80" height="30" as="geometry" />
        </mxCell>
        <mxCell id="h8hSHoQpXSS6d47UH3lF-40" value="異常検知" style="whiteSpace=wrap;html=1;rounded=1;" vertex="1" parent="1">
          <mxGeometry x="730" y="347.5" width="130" height="55" as="geometry" />
        </mxCell>
        <mxCell id="h8hSHoQpXSS6d47UH3lF-41" value="" style="shape=flexArrow;endArrow=classic;html=1;rounded=0;fillColor=#006aff;strokeColor=#006aff;" edge="1" parent="1">
          <mxGeometry width="50" height="50" relative="1" as="geometry">
            <mxPoint x="440" y="374.5" as="sourcePoint" />
            <mxPoint x="540" y="374.5" as="targetPoint" />
          </mxGeometry>
        </mxCell>
      </root>
    </mxGraphModel>
  </diagram>
</mxfile>
